<mxfile host="app.diagrams.net" modified="2023-08-31T22:42:13.045Z" agent="Mozilla/5.0 (Windows NT 10.0; Win64; x64) AppleWebKit/537.36 (KHTML, like Gecko) Chrome/116.0.0.0 Safari/537.36" version="21.7.1" etag="t0ek6K0D0OAAWxxGSVqz" type="github">
  <diagram name="Page-1" id="LZHwuz6B-2tiDk-ijNwM">
    <mxGraphModel>
      <root>
        <mxCell id="0" />
        <mxCell id="1" parent="0" />
      </root>
    </mxGraphModel>
  </diagram>
</mxfile>
